<svg viewBox="0 0 20 16" xmlns="http://www.w3.org/2000/svg"><path d="m8.50297526.20100591c.64763192-.26800788 1.37523564-.26800788 2.02297514 0l7.0993028 2.93764625c.394908.16338794.3907103.72415946-.006458.88162754l-7.129225 2.82710645c-.62632041.24841855-1.32389437.24841855-1.95032242 0l-7.12911731-2.82710645c-.39727594-.15746808-.40136602-.7182396-.00656565-.88162754zm1.64393234 8.1902025c0-.19503219.1190429-.37025987.300298-.44215918l7.944012-3.08348988c.3122453-.12377875.6509685.10623444.6509685.44215918v7.06249207c0 .1950323-.1189352.3702599-.300298.4421592l-7.9440119 3.0834899c-.3122454.1237788-.6509686-.1062345-.6509686-.4421592zm-1.85498046.36440461-2.35760833 1.13833392-.23937732.11570616-4.97676647 2.3846244c-.31547434.152194-.71813197-.0777115-.71813197-.4281668v-6.62872832c0-.12679249.06501075-.23625595.15219404-.31870335.03638019-.03648782.07760389-.06651762.1204421-.09030467.11893522-.07136113.28856591-.09041229.43279506-.03336644l7.54684367 2.99017147c.38360647.15219408.41374392.68971668.03960922.87043363z" fill="#fff"/><path d="m8.29192714 8.75561302-2.35760833 1.13833392-5.78208172-4.87526791c.03638019-.03648782.07760389-.06651762.1204421-.09030467.11893522-.07136113.28856591-.09041229.43279506-.03336644l7.54684367 2.99017147c.38360647.15219408.41374392.68971668.03960922.87043363" fill="#ededed" fill-opacity=".25"/></svg>